<?xml version="1.0" encoding="UTF-8"?>
<svg width="536px" height="536px" viewBox="0 0 536 536" version="1.1" xmlns="http://www.w3.org/2000/svg" xmlns:xlink="http://www.w3.org/1999/xlink">
    <!-- Generator: Sketch 51.2 (57519) - http://www.bohemiancoding.com/sketch -->
    <title>Artboard 2</title>
    <desc>Created with Sketch.</desc>
    <defs>
        <polygon id="path-1" points="199.5 0.46835443 398.950108 115.734177 398.950108 346.265823 199.5 461.531646 0.0498920247 346.265823 0.0498920247 115.734177"></polygon>
    </defs>
    <g id="Artboard-2" stroke="none" stroke-width="1" fill="none" fill-rule="evenodd">
        <polygon id="Combined-Shape" fill="#000000" fill-rule="nonzero" points="267.5 5 495 136.5 495 399.5 267.5 531 40 399.5 40 136.5"></polygon>
        <g id="Logo" transform="translate(68.000000, 37.000000)">
            <g id="grid">
                <mask id="mask-2" fill="white">
                    <use xlink:href="#path-1"></use>
                </mask>
                <g id="Mask" fill-rule="nonzero"></g>
                <path d="M247.664523,204.762507 C247.164021,203.919081 246.641362,203.090372 246.09735,202.277185 L295.582721,173.678695 L295.582721,171.396375 L201.700368,117.140066 L201.700368,178.1441 C201.456268,178.140864 201.211779,178.139241 200.966912,178.139241 C200.229933,178.139241 199.496385,178.153944 198.766544,178.183073 L198.766544,115.553179 L100.633874,172.265823 L154.945471,203.653477 C154.426673,204.481951 153.929583,205.325434 153.454999,206.183125 L99.0165441,174.722158 L99.0165441,282.926076 L102.781581,285.101959 L152.275492,256.498533 C152.709724,257.378453 153.16706,258.244908 153.646707,259.097102 L105.715405,286.797468 L198.766544,340.573404 L198.766544,286.753636 C199.496385,286.782765 200.229933,286.797468 200.966912,286.797468 C201.211779,286.797468 201.456268,286.795845 201.700368,286.792609 L201.700368,339.529941 L292.945952,286.797468 L247.462541,260.511783 C247.96741,259.674867 248.450364,258.823217 248.910608,257.957628 L295.582721,284.930285 L295.582721,177.069715 L247.664523,204.762507 Z M295.582721,399.916242 L201.700368,345.659933 L201.700368,511.455696 L201.700368,512.924051 L198.766544,512.924051 L198.766544,511.455696 L198.766544,344.61647 L99.0165441,402.263798 L99.0165441,511.455696 L99.0165441,512.924051 L96.0827206,512.924051 L96.0827206,511.455696 L96.0827206,403.959308 L10.7084559,453.298638 L10.7084559,511.455696 L10.7084559,512.924051 L7.77463235,512.924051 L7.77463235,511.455696 L7.77463235,454.994148 L-28.6047794,476.018468 L-29.8751623,476.752645 L-31.342074,474.20938 L-30.0716912,473.475203 L7.77463235,451.603129 L7.77463235,343.399211 L-28.6047794,364.423531 L-29.8751623,365.157708 L-31.342074,362.614444 L-30.0716912,361.880266 L7.77463235,340.008192 L7.77463235,233.586745 L1.15095319,229.758801 L-28.6047794,246.955177 L-29.8751623,247.689354 L-31.342074,245.146089 L-30.0716912,244.411912 L-1.78287034,228.063291 L-30.0716912,211.71467 L-31.342074,210.980493 L-29.8751623,208.437229 L-28.6047794,209.171406 L1.15095319,226.367781 L7.77463235,222.539838 L7.77463235,121.991808 L-30.0716912,100.119734 L-31.342074,99.3855563 L-29.8751623,96.8422918 L-28.6047794,97.576469 L7.77463235,118.600789 L7.77463235,-28.8987342 L7.77463235,-30.3670886 L10.7084559,-30.3670886 L10.7084559,-28.8987342 L10.7084559,120.296298 L96.0827206,169.635629 L96.0827206,56.1017186 L19.8033088,12.0184677 L18.532926,11.2842905 L19.9998377,8.74102599 L21.2702206,9.4752032 L96.0827206,52.7106993 L96.0827206,-28.8987342 L96.0827206,-30.3670886 L99.0165441,-30.3670886 L99.0165441,-28.8987342 L99.0165441,54.406209 L198.766544,112.053537 L198.766544,-28.8987342 L198.766544,-30.3670886 L201.700368,-30.3670886 L201.700368,-28.8987342 L201.700368,110.46665 L295.582721,56.2103408 L295.582721,-28.8987342 L295.582721,-30.3670886 L298.516544,-30.3670886 L298.516544,-28.8987342 L298.516544,54.5148311 L389.465074,1.95403193 L389.465074,-28.8987342 L389.465074,-30.3670886 L392.398897,-30.3670886 L392.398897,-28.8987342 L392.398897,0.258522279 L427.266136,-19.8918854 L428.536519,-20.6260626 L430.003431,-18.0827981 L428.733048,-17.3486209 L392.398897,3.64954158 L392.398897,117.726877 L427.266136,97.576469 L428.536519,96.8422918 L430.003431,99.3855563 L428.733048,100.119734 L392.398897,121.117896 L392.398897,223.957174 L397.040246,226.639494 L427.266136,209.171406 L428.536519,208.437229 L430.003431,210.980493 L428.733048,211.71467 L399.97407,228.335003 L478.608048,273.779001 L479.878431,274.513178 L478.411519,277.056442 L477.141136,276.322265 L397.040246,230.030513 L392.398897,232.712833 L392.398897,340.882104 L428.733048,361.880266 L430.003431,362.614444 L428.536519,365.157708 L427.266136,364.423531 L392.398897,344.273123 L392.398897,452.477041 L428.733048,473.475203 L430.003431,474.20938 L428.536519,476.752645 L427.266136,476.018468 L392.398897,455.86806 L392.398897,511.455696 L392.398897,512.924051 L389.465074,512.924051 L389.465074,511.455696 L389.465074,454.17255 L298.516544,401.611751 L298.516544,511.455696 L298.516544,512.924051 L295.582721,512.924051 L295.582721,511.455696 L295.582721,399.916242 Z M298.516544,57.9058504 L298.516544,169.700865 L300.49115,170.842025 L389.465074,119.422386 L389.465074,5.34505123 L298.516544,57.9058504 Z M295.582721,59.6013601 L201.794345,113.803358 L295.582721,168.005356 L295.582721,59.6013601 Z M298.516544,290.016814 L298.516544,398.220732 L389.465074,450.781531 L389.465074,342.577614 L298.516544,290.016814 Z M295.582721,288.664651 L202.264502,342.594937 L295.582721,396.525222 L295.582721,288.664651 Z M298.516544,175.374205 L298.516544,283.578122 L389.465074,231.017323 L389.465074,225.652684 L300.49115,174.233045 L298.516544,175.374205 Z M99.0165441,169.809487 L195.926698,113.803358 L99.0165441,57.7972283 L99.0165441,169.809487 Z M96.0827206,284.621585 L10.7084559,235.282254 L10.7084559,338.312682 L96.0827206,288.973351 L96.0827206,284.621585 Z M99.0165441,286.317095 L99.0165441,287.277842 L99.8477579,286.797468 L99.0165441,286.317095 Z M96.0827206,292.364371 L10.7084559,341.703702 L10.7084559,449.907619 L96.0827206,400.568288 L96.0827206,292.364371 Z M99.0165441,290.668861 L99.0165441,398.872779 L196.396855,342.594937 L102.781581,288.492978 L99.0165441,290.668861 Z M96.0827206,174.896016 L10.7084559,224.235347 L10.7084559,231.891235 L96.0827206,281.230566 L96.0827206,174.896016 Z M10.7084559,123.687318 L10.7084559,220.844328 L94.7662265,172.265823 L10.7084559,123.687318 Z M7.77463235,225.930857 L4.08477672,228.063291 L7.77463235,230.195725 L7.77463235,225.930857 Z M389.465074,122.813406 L303.424973,172.537535 L389.465074,222.261664 L389.465074,122.813406 Z M389.465074,234.408342 L298.813599,286.797468 L389.465074,339.186594 L389.465074,234.408342 Z M392.398897,227.348193 L392.398897,229.321813 L394.106423,228.335003 L392.398897,227.348193 Z" id="Combined-Shape" fill="#FFFFFF" fill-rule="nonzero" opacity="0.368638393" mask="url(#mask-2)"></path>
            </g>
            <path d="M199.5,0 L399,115.25 L399,345.75 L199.5,461 L9.30810984e-13,345.75 L8.02913291e-13,115.25 L199.5,0 Z M199.5,17.5257482 L15.1687061,124.012874 L15.1687061,336.987126 L199.5,443.474252 L383.831294,336.987126 L383.831294,124.012874 L199.5,17.5257482 Z" id="Combined-Shape" fill="#FFFFFF" fill-rule="nonzero"></path>
            <path d="M199.5,108 L399,230 L199.5,352 L0,230 L199.5,108 Z M200.966912,119.759036 L20.5367647,230 L200.966912,340.240964 L381.397059,230 L200.966912,119.759036 Z" id="Combined-Shape" fill="#FFFFFF" fill-rule="nonzero"></path>
            <path d="M201,298 C164.549207,298 135,268.450793 135,232 C135,195.549207 164.549207,166 201,166 C237.450793,166 267,195.549207 267,232 C267,268.450793 237.450793,298 201,298 Z M201,286.266667 C230.970652,286.266667 255.266667,261.970652 255.266667,232 C255.266667,202.029348 230.970652,177.733333 201,177.733333 C171.029348,177.733333 146.733333,202.029348 146.733333,232 C146.733333,261.970652 171.029348,286.266667 201,286.266667 Z" id="Combined-Shape" fill="#FFFFFF" fill-rule="nonzero"></path>
        </g>
    </g>
</svg>