<?xml version="1.0" encoding="UTF-8"?>
<svg width="100px" height="115px" viewBox="0 0 100 115" version="1.1" xmlns="http://www.w3.org/2000/svg" xmlns:xlink="http://www.w3.org/1999/xlink">
    <!-- Generator: Sketch 51.2 (57519) - http://www.bohemiancoding.com/sketch -->
    <title>Group 2</title>
    <desc>Created with Sketch.</desc>
    <defs></defs>
    <g id="Page-1" stroke="none" stroke-width="1" fill="none" fill-rule="evenodd">
        <g id="Artboard-2" transform="translate(-206.000000, -55.000000)" fill="#FFFFFF" fill-rule="nonzero">
            <g id="Group-2" transform="translate(206.000000, 55.000000)">
                <g id="Group">
                    <path d="M50,3.16867726 L2.94117647,30.3381017 L2.94117647,84.6769506 L50,111.846375 L97.0588235,84.6769506 L97.0588235,30.3381017 L50,3.16867726 Z M50.7352941,0.197021465 L99.2647059,28.2154904 C99.7197075,28.4781857 100,28.9636666 100,29.4890572 L100,85.5259951 C100,86.0513856 99.7197075,86.5368666 99.2647059,86.7995618 L50.7352941,114.818031 C50.2802925,115.080726 49.7197075,115.080726 49.2647059,114.818031 L0.735294118,86.7995618 C0.280292534,86.5368666 2.92576421e-14,86.0513856 2.92576421e-14,85.5259951 L0,29.4890572 C0,28.9636666 0.280292534,28.4781857 0.735294118,28.2154904 L49.2647059,0.197021465 C49.7197075,-0.0656738217 50.2802925,-0.0656738217 50.7352941,0.197021465 Z" id="Polygon"></path>
                    <path d="M50,31.1153939 L4.38352933,57.7941176 L50,84.4728414 L95.6164707,57.7941176 L50,31.1153939 Z M50.7424214,28.1423395 L99.2718331,56.5246925 C100.242722,57.0925155 100.242722,58.4957198 99.2718331,59.0635428 L50.7424214,87.4458958 C50.2838113,87.7141132 49.7161887,87.7141132 49.2575786,87.4458958 L0.728166852,59.0635428 C-0.242722284,58.4957198 -0.242722284,57.0925155 0.728166852,56.5246925 L49.2575786,28.1423395 C49.7161887,27.8741221 50.2838113,27.8741221 50.7424214,28.1423395 Z" id="Polygon-2"></path>
                    <path d="M50.1470588,75 C40.6445124,75 32.9411765,67.2966641 32.9411765,57.7941176 C32.9411765,48.2915712 40.6445124,40.5882353 50.1470588,40.5882353 C59.6496053,40.5882353 67.3529412,48.2915712 67.3529412,57.7941176 C67.3529412,67.2966641 59.6496053,75 50.1470588,75 Z M50.1470588,72.0588235 C58.0252383,72.0588235 64.4117647,65.6722972 64.4117647,57.7941176 C64.4117647,49.9159381 58.0252383,43.5294118 50.1470588,43.5294118 C42.2688793,43.5294118 35.8823529,49.9159381 35.8823529,57.7941176 C35.8823529,65.6722972 42.2688793,72.0588235 50.1470588,72.0588235 Z" id="Oval"></path>
                </g>
            </g>
        </g>
    </g>
</svg>