
<svg width="50px" height="56px" viewBox="0 0 50 56" version="1.1" xmlns="http://www.w3.org/2000/svg" xmlns:xlink="http://www.w3.org/1999/xlink">
    <!-- Generator: Sketch 51.2 (57519) - http://www.bohemiancoding.com/sketch -->
    <desc>Created with Sketch.</desc>
    <defs>
        <path d="M33.72,41.4 L3.72,41.4 L3.72,3.4 L20.72,3.4 L20.72,0.4 L3.72,0.4 C2.06314575,0.4 0.72,1.74314575 0.72,3.4 L0.72,41.4 C0.72,43.0568542 2.06314575,44.4 3.72,44.4 L33.72,44.4 C35.3768542,44.4 36.72,43.0568542 36.72,41.4 L36.72,22.4 L33.72,22.4 L33.72,41.4 Z" id="path-1"></path>
        <filter x="-27.8%" y="-18.2%" width="155.6%" height="145.5%" filterUnits="objectBoundingBox" id="filter-2">
            <feOffset dx="0" dy="2" in="SourceAlpha" result="shadowOffsetOuter1"></feOffset>
            <feGaussianBlur stdDeviation="3" in="shadowOffsetOuter1" result="shadowBlurOuter1"></feGaussianBlur>
            <feColorMatrix values="0 0 0 0 0   0 0 0 0 0   0 0 0 0 0  0 0 0 0.5 0" type="matrix" in="shadowBlurOuter1"></feColorMatrix>
        </filter>
        <path d="M38.84,4.14 L36.72,2.02 C35.5487298,0.850186488 33.6512702,0.850186488 32.48,2.02 C32.48,2.02 15.81,18.67 15.56,19.68 L14.81,22.68 C14.553263,23.7030291 14.8526277,24.7857272 15.5984503,25.5315497 C16.3442728,26.2773723 17.4269709,26.576737 18.45,26.32 L21.45,25.57 C22.45,25.31 38.84,8.39 38.84,8.39 C40.0098135,7.21872981 40.0098135,5.32127019 38.84,4.15 L38.84,4.14 Z M22.64,20.34 L20.59,18.29 L20.52,18.23 L34.6,4.15 L36.72,6.27 L22.64,20.34 Z" id="path-3"></path>
        <filter x="-40.0%" y="-31.7%" width="180.0%" height="179.2%" filterUnits="objectBoundingBox" id="filter-4">
            <feOffset dx="0" dy="2" in="SourceAlpha" result="shadowOffsetOuter1"></feOffset>
            <feGaussianBlur stdDeviation="3" in="shadowOffsetOuter1" result="shadowBlurOuter1"></feGaussianBlur>
            <feColorMatrix values="0 0 0 0 0   0 0 0 0 0   0 0 0 0 0  0 0 0 0.5 0" type="matrix" in="shadowBlurOuter1"></feColorMatrix>
        </filter>
    </defs>
    <g id="Page-1" stroke="none" stroke-width="1" fill="none" fill-rule="evenodd">
        <g id="Artboard" transform="translate(-308.000000, -412.000000)">
            <g id="Edit-2" transform="translate(313.000000, 416.000000)">
                <g id="Shape">
                    <use fill="black" fill-opacity="1" filter="url(#filter-2)" xlink:href="#path-1"></use>
                    <use fill="#FFFFFF" fill-rule="evenodd" xlink:href="#path-1"></use>
                </g>
                <g id="Shape">
                    <use fill="black" fill-opacity="1" filter="url(#filter-4)" xlink:href="#path-3"></use>
                    <use fill="#FFFFFF" fill-rule="evenodd" xlink:href="#path-3"></use>
                </g>
            </g>
        </g>
    </g>
</svg>