
<svg width="174px" height="195px" viewBox="0 0 174 195" version="1.1" xmlns="http://www.w3.org/2000/svg" xmlns:xlink="http://www.w3.org/1999/xlink">
    <!-- Generator: Sketch 51.2 (57519) - http://www.bohemiancoding.com/sketch -->
    <desc>Created with Sketch.</desc>
    <defs>
        <polygon id="path-1" points="83.5 0 155.813121 41.75 155.813121 125.25 83.5 167 11.1868788 125.25 11.1868788 41.75"></polygon>
        <filter x="-15.3%" y="-11.7%" width="130.5%" height="130.5%" filterUnits="objectBoundingBox" id="filter-2">
            <feOffset dx="0" dy="6" in="SourceAlpha" result="shadowOffsetOuter1"></feOffset>
            <feGaussianBlur stdDeviation="7.5" in="shadowOffsetOuter1" result="shadowBlurOuter1"></feGaussianBlur>
            <feColorMatrix values="0 0 0 0 0   0 0 0 0 0   0 0 0 0 0  0 0 0 0.33814538 0" type="matrix" in="shadowBlurOuter1"></feColorMatrix>
        </filter>
    </defs>
    <g id="Page-1" stroke="none" stroke-width="1" fill="none" fill-rule="evenodd">
        <g id="Artboard-2" transform="translate(-270.000000, -105.000000)">
            <g id="Group-4" transform="translate(274.000000, 113.000000)">
                <g id="Polygon-3">
                    <use fill="black" fill-opacity="1" filter="url(#filter-2)" xlink:href="#path-1"></use>
                    <use fill="#111111" fill-rule="evenodd" xlink:href="#path-1"></use>
                </g>
                <g id="Group-3" transform="translate(40.000000, 35.000000)" fill="#FFFFFF">
                    <g id="Add" transform="translate(56.000000, 65.000000)">
                        <path d="M29.7763158,15.1973684 L16.7236842,15.1973684 L16.7236842,1.30263158 C16.7236842,0.583208023 16.1758221,0 15.5,0 C14.8241779,0 14.2763158,0.583208023 14.2763158,1.30263158 L14.2763158,15.1973684 L1.22368421,15.1973684 C0.547862082,15.1973684 0,15.7805764 0,16.5 C0,17.2194236 0.547862082,17.8026316 1.22368421,17.8026316 L14.2763158,17.8026316 L14.2763158,31.6973684 C14.2763158,32.416792 14.8241779,33 15.5,33 C16.1758221,33 16.7236842,32.416792 16.7236842,31.6973684 L16.7236842,17.8026316 L29.7763158,17.8026316 C30.4521379,17.8026316 31,17.2194236 31,16.5 C31,15.7805764 30.4521379,15.1973684 29.7763158,15.1973684 L29.7763158,15.1973684 Z" id="Shape"></path>
                    </g>
                    <g id="Document">
                        <path d="M57.1052638,0 L19.5789529,0 C17.8903964,0.0060478085 16.3240446,0.926114054 15.4347429,2.43428571 L2.382113,16.1485714 C0.901850246,17.0788831 -0.00311346075,18.7591303 8.04924846e-06,20.5714286 L8.04924846e-06,66.8571429 C8.04924846e-06,69.6974644 2.19145609,72 4.89474426,72 L57.1052638,72 C59.808552,72 62,69.6974644 62,66.8571429 L62,5.14285714 C62,2.30253557 59.808552,0 57.1052638,0 Z M14.6842167,10.4914286 L14.6842167,15.4285714 L9.98526991,15.4285714 L14.6842167,10.4914286 Z M57.1052638,66.8571429 L4.89474426,66.8571429 L4.89474426,20.7428571 L4.99263898,20.7428571 L5.0905337,20.64 L19.5789529,20.64 L19.5789529,5.41714286 L19.6768476,5.31428571 L19.6768476,5.21142857 L57.0400006,5.21142857 L57.1052638,66.8571429 Z" id="Shape"></path>
                        <path d="M47.5217391,39 L14.4782609,39 C13.1095552,39 12,40.1192881 12,41.5 C12,42.8807119 13.1095552,44 14.4782609,44 L47.5217391,44 C48.8904448,44 50,42.8807119 50,41.5 C50,40.1192881 48.8904448,39 47.5217391,39 Z" id="Shape"></path>
                        <path d="M42.525,51 L14.475,51 C13.1080952,51 12,52.1192881 12,53.5 C12,54.8807119 13.1080952,56 14.475,56 L42.525,56 C43.8919048,56 45,54.8807119 45,53.5 C45,52.1192881 43.8919048,51 42.525,51 Z" id="Shape"></path>
                        <path d="M36,33 L46,33 C48.7614237,33 51,30.6494949 51,27.75 L51,17.25 C51,14.3505051 48.7614237,12 46,12 L36,12 C33.2385763,12 31,14.3505051 31,17.25 L31,27.75 C31,30.6494949 33.2385763,33 36,33 Z M36,17.25 L46,17.25 L46,27.75 L36,27.75 L36,17.25 Z" id="Shape"></path>
                    </g>
                </g>
            </g>
        </g>
    </g>
</svg>